<?xml version="1.0" encoding="UTF-8" standalone="no" ?>
<!DOCTYPE svg PUBLIC "-//W3C//DTD SVG 1.1//EN" "http://www.w3.org/Graphics/SVG/1.1/DTD/svg11.dtd">
<svg xmlns="http://www.w3.org/2000/svg" xmlns:xlink="http://www.w3.org/1999/xlink" version="1.1" width="640" height="640" viewBox="0 0 640 640" xml:space="preserve">
<desc>Created with Fabric.js 5.3.0</desc>
<defs>
</defs>
<g transform="matrix(1.2147651007 0 0 1.2039911308 320.5893186004 320.5893186004)" id="1VgjWHGVjQZbiGMe2mPK6"  >
<path style="stroke: rgb(36,221,194); stroke-width: 0; stroke-dasharray: none; stroke-linecap: butt; stroke-dashoffset: 0; stroke-linejoin: miter; stroke-miterlimit: 4; fill: rgb(205,255,248); fill-rule: nonzero; opacity: 1;" vector-effect="non-scaling-stroke"  transform=" translate(0, 0)" d="M 4.71455 -265.78269 L -160.43838 -265.78269 L -160.43838 -265.78269 C -217.31655 -265.78269 -263.42541 -219.26122 -263.42541 -161.87407000000002 L -263.42541 33.795859999999976 L -263.42541 33.795859999999976 C -263.42541 161.91864999999999 -160.48255999999998 265.78269 -33.49610999999999 265.78269 L 33.49612000000002 265.78269 L 33.49612000000002 265.78269 C 160.48257 265.78269 263.42542000000003 161.91865 263.42542000000003 33.795860000000005 L 263.42542000000003 -33.79585999999999 L 263.42542000000003 -33.79585999999999 C 263.42542000000003 -95.32258999999999 239.20080000000002 -154.32934999999998 196.08069000000003 -197.83531999999997 C 152.96058000000005 -241.34128999999996 94.47716000000003 -265.78269 33.49612000000002 -265.78269 z" stroke-linecap="round" />
</g>
<g transform="matrix(3.2607508904 0 0 3.4603887001 231.8029676125 245.2861569215)" id="aUuBgGkkI6GQlE6qj0-PN"  >
<path style="stroke: rgb(36,221,194); stroke-width: 0; stroke-dasharray: none; stroke-linecap: butt; stroke-dashoffset: 0; stroke-linejoin: miter; stroke-miterlimit: 4; fill: rgb(36,221,194); fill-rule: nonzero; opacity: 1;" vector-effect="non-scaling-stroke"  transform=" translate(0, 0)" d="M -1.39499 -28.87661 C -17.54909 -28.87661 -30.64457 -16.53664 -30.64457 -1.3145099999999985 L -30.64457 12.253290000000002 L -30.64457 12.253290000000002 C -30.64457 21.4341 -22.74639 28.87661 -13.003490000000003 28.87661 L 1.3949899999999964 28.87661 L 1.3949899999999964 28.87661 C 17.549089999999996 28.87661 30.644569999999998 16.53664 30.644569999999998 1.3145099999999985 L 30.644569999999998 -1.3145100000000016 L 30.644569999999998 -1.3145100000000016 C 30.644569999999998 -16.536640000000002 17.54909 -28.876610000000003 1.3949899999999964 -28.876610000000003 z" stroke-linecap="round" />
</g>
<g transform="matrix(1.4550661005 0 0 1.5441517802 227.7073323396 245.2861569215)" id="6V_CuEmmUsfWH5pv9xNxx"  >
<path style="stroke: rgb(36,221,194); stroke-width: 0; stroke-dasharray: none; stroke-linecap: butt; stroke-dashoffset: 0; stroke-linejoin: miter; stroke-miterlimit: 4; fill: rgb(205,255,248); fill-rule: nonzero; opacity: 1;" vector-effect="non-scaling-stroke"  transform=" translate(0, 0)" d="M -1.39499 -28.87661 C -17.54909 -28.87661 -30.64457 -16.53664 -30.64457 -1.3145099999999985 L -30.64457 22.789170000000002 L -30.64457 22.789170000000002 C -30.64457 26.15117 -27.752270000000003 28.876610000000003 -24.184430000000003 28.876610000000003 L 1.3949799999999968 28.876610000000003 L 1.3949799999999968 28.876610000000003 C 17.549079999999996 28.876610000000003 30.64456 16.536640000000006 30.64456 1.314510000000002 L 30.64456 -1.314509999999998 L 30.64456 -1.314509999999998 C 30.64456 -16.53664 17.549079999999996 -28.87661 1.3949799999999968 -28.87661 z" stroke-linecap="round" />
</g>
<g transform="matrix(2.6407766969 0 0 1.3119175154 148.3919235312 310.5709023941)" id="rVO7CmoEHk7Ngi5JrKn93"  >
<path style="stroke: rgb(36,221,194); stroke-width: 0; stroke-dasharray: none; stroke-linecap: butt; stroke-dashoffset: 0; stroke-linejoin: miter; stroke-miterlimit: 4; fill: rgb(36,221,194); fill-rule: nonzero; opacity: 1;" vector-effect="non-scaling-stroke"  transform=" translate(0, 0)" d="M -2.05954 -125.92945 C 6.34032 -125.92945 13.14975 -112.22266 13.14975 -95.31447 L 13.14975 19.852090000000004 L 13.14975 108.48873 L 13.14975 108.48873 C 13.14975 118.12097 9.27056 125.92944 4.485339999999999 125.92944 L -3.87997 125.92944 L -3.87997 125.92944 C -8.99952 125.92944 -13.14974 117.57541 -13.14974 107.2702 L -13.14974 -119.45347 L -13.14974 -119.45347 C -13.14974 -123.03004999999999 -11.70934 -125.92944 -9.93253 -125.92944 z" stroke-linecap="round" />
</g>
<g transform="matrix(2.3309253653 0 0 1.2885617668 368.2455160735 313.5120788647)" id="Vg829-n91UssFqzah0-VI"  >
<path style="stroke: rgb(36,221,194); stroke-width: 0; stroke-dasharray: none; stroke-linecap: butt; stroke-dashoffset: 0; stroke-linejoin: miter; stroke-miterlimit: 4; fill: rgb(36,221,194); fill-rule: nonzero; opacity: 1;" vector-effect="non-scaling-stroke"  transform=" translate(0, 0)" d="M 13.14974 -125.92945 L 13.14974 19.852090000000004 L 13.14974 108.17261 L 13.14974 108.17261 C 13.14974 117.97943000000001 8.75489 125.92944 3.33357 125.92944 L -2.6477399999999998 125.92944 L -2.6477399999999998 125.92944 C -8.44784 125.92944 -13.149740000000001 117.42399 -13.149740000000001 106.93199 L -13.149740000000001 -110.41085 L -13.149740000000001 -110.41085 C -13.149740000000001 -118.98154 -9.308850000000001 -125.92945 -4.570880000000001 -125.92945 z" stroke-linecap="round" />
</g>
<g transform="matrix(-6.9357695934 0 0 0.2826404405 455.2731031892 186.8369639847)" id="yv2xh50ckb9uxHLVcPoLm"  >
<path style="stroke: rgb(36,221,194); stroke-width: 0; stroke-dasharray: none; stroke-linecap: butt; stroke-dashoffset: 0; stroke-linejoin: miter; stroke-miterlimit: 4; fill: rgb(36,221,194); fill-rule: nonzero; opacity: 1;" vector-effect="non-scaling-stroke"  transform=" translate(0, 0)" d="M -8.55528 -125.92945 L 10.187920000000002 -125.92945 L 10.187920000000002 -125.92945 C 11.823690000000003 -125.92945 13.149740000000001 -93.38917000000001 13.149740000000001 -53.24871 L 13.149740000000001 19.852090000000004 L 13.149740000000001 73.04359 L 13.149740000000001 73.04359 C 13.149740000000001 102.25164 12.184840000000001 125.92944 10.994580000000001 125.92944 L -8.325749999999998 125.92944 L -8.325749999999998 125.92944 C -10.989969999999998 125.92944 -13.149749999999997 72.93026 -13.149749999999997 7.552449999999993 L -13.149749999999997 -70.90425 L -13.149749999999997 -70.90425 C -13.149749999999997 -101.29383 -12.145819999999997 -125.92945 -10.907409999999997 -125.92945 z" stroke-linecap="round" />
</g>
<g transform="matrix(-6.1114844719 0 0 0.2300597151 442.2890372112 301.8930480516)" id="dAGiHdREu39QY2IzrOYDC"  >
<path style="stroke: rgb(36,221,194); stroke-width: 0; stroke-dasharray: none; stroke-linecap: butt; stroke-dashoffset: 0; stroke-linejoin: miter; stroke-miterlimit: 4; fill: rgb(36,221,194); fill-rule: nonzero; opacity: 1;" vector-effect="non-scaling-stroke"  transform=" translate(0, 0)" d="M 9.78845 -125.92945 C 11.644839999999999 -125.92945 13.14975 -85.95201 13.14975 -36.63734000000001 L 13.14975 19.85208999999999 L 13.14975 60.95639999999999 L 13.14975 60.95639999999999 C 13.14975 96.84001999999998 12.05471 125.92943999999999 10.70392 125.92943999999999 L -7.5264500000000005 125.92943999999999 L -7.5264500000000005 125.92943999999999 C -10.632100000000001 125.92943999999999 -13.149730000000002 59.04917999999998 -13.149730000000002 -23.451790000000003 L -13.149730000000002 -104.26242 L -13.149730000000002 -104.26242 C -13.149730000000002 -116.22879 -12.784560000000003 -125.92945 -12.334100000000001 -125.92945 z" stroke-linecap="round" />
</g>
<g transform="matrix(1 0 0 1 114.1663856481 -104.4669081449)" id="317Cyj4RC9o_TGUqj5LWH"  >
<path style="stroke: rgb(36,221,194); stroke-width: 1; stroke-dasharray: none; stroke-linecap: butt; stroke-dashoffset: 0; stroke-linejoin: miter; stroke-miterlimit: 4; fill: rgb(255,255,255); fill-opacity: 0; fill-rule: nonzero; opacity: 1;" vector-effect="non-scaling-stroke"  transform=" translate(0, 0)" d="M 0 0" stroke-linecap="round" />
</g>
</svg>